<svg width="56" height="55" viewBox="0 0 56 55" fill="none" xmlns="http://www.w3.org/2000/svg">
<g clip-path="url(#clip0_1_34)">
<path d="M19.4908 16.837L5.04088 18.9321L4.78494 18.9841C4.39751 19.087 4.04432 19.2908 3.76143 19.5748C3.47854 19.8588 3.27609 20.2128 3.17475 20.6007C3.07342 20.9885 3.07683 21.3963 3.18464 21.7823C3.29245 22.1684 3.50079 22.519 3.7884 22.7982L14.2567 32.9879L11.788 47.3813L11.7585 47.6304C11.7348 48.0311 11.818 48.4309 11.9996 48.7889C12.1812 49.1469 12.4547 49.4502 12.7921 49.6677C13.1294 49.8852 13.5185 50.0092 13.9196 50.0269C14.3206 50.0446 14.7191 49.9554 15.0743 49.7684L27.9977 42.9738L40.8917 49.7684L41.1182 49.8726C41.4921 50.0199 41.8983 50.065 42.2954 50.0034C42.6924 49.9419 43.066 49.7758 43.3776 49.5222C43.6893 49.2686 43.9279 48.9367 44.069 48.5604C44.21 48.1842 44.2485 47.7772 44.1803 47.3813L41.7093 32.9879L52.1822 22.7959L52.3588 22.6034C52.6112 22.2926 52.7766 21.9205 52.8383 21.5249C52.9001 21.1293 52.8558 20.7244 52.7101 20.3515C52.5644 19.9786 52.3224 19.651 52.0089 19.402C51.6953 19.1531 51.3214 18.9917 50.9252 18.9343L36.4752 16.837L30.0158 3.74601C29.8288 3.36672 29.5395 3.04732 29.1804 2.82398C28.8214 2.60064 28.407 2.48227 27.9841 2.48227C27.5613 2.48227 27.1469 2.60064 26.7879 2.82398C26.4288 3.04732 26.1395 3.36672 25.9525 3.74601L19.4908 16.837Z" fill="#FBFF37"/>
</g>
<defs>
<clipPath id="clip0_1_34">
<rect width="54.3572" height="54.3572" fill="white" transform="translate(0.821396 0.212784)"/>
</clipPath>
</defs>
</svg>
